<?xml version="1.0" encoding="UTF-8"?>
<svg version="1.1" xmlns="http://www.w3.org/2000/svg" width="500" height="200">
<path d="M0 0 C1.69937239 1.08921198 3.37090961 2.22374518 5.00390625 3.41015625 C7.08040782 4.82369042 7.08040782 4.82369042 9.2578125 4.46875 C11.35168966 3.55690027 12.93984908 2.44069689 14.7578125 1.0625 C19.76490452 -2.15100682 24.40608647 -2.28226677 30.1953125 -1.375 C34.6284014 -0.05815994 37.36689951 2.37818126 39.6328125 6.375 C41.82471456 11.55932488 42.18711236 15.85670605 40.29272461 21.14428711 C37.09055546 28.70192965 33.67908929 36.14538984 30.11132812 43.53588867 C29.18947013 45.44962853 28.27823478 47.36820386 27.3671875 49.28710938 C19.82601125 65.03665358 19.82601125 65.03665358 13.8828125 68.625 C9.74639083 69.74674147 6.23209249 70.27137301 2.1953125 68.625 C-1.74122715 65.23228373 -4.38753699 61.45241289 -6.8671875 56.9375 C-7.23714844 56.27339111 -7.60710938 55.60928223 -7.98828125 54.92504883 C-25.97722888 21.83875933 -25.97722888 21.83875933 -24.8046875 10.625 C-23.05680089 5.93330436 -20.56004102 2.91093433 -16.8046875 -0.375 C-11.22233217 -2.23578511 -5.36919354 -2.63225087 0 0 Z M-14.9296875 9.1875 C-17.14710754 13.25277007 -16.88667616 14.25098184 -15.8046875 18.625 C-14.97496627 20.73792627 -14.0704294 22.82238754 -13.109375 24.87890625 C-12.55765625 26.06419922 -12.0059375 27.24949219 -11.4375 28.47070312 C-11.1477832 29.08308838 -10.85806641 29.69547363 -10.55957031 30.32641602 C-9.69527754 32.15452473 -8.84280114 33.98775906 -7.9921875 35.82226562 C-6.58191388 38.83290736 -5.14846435 41.82968868 -3.68591309 44.81524658 C-3.08818104 46.04279562 -2.49832945 47.27420733 -1.91564941 48.50897217 C-1.04904196 50.33815368 -0.14994371 52.15183111 0.75 53.96484375 C1.26804199 55.02952881 1.78608398 56.09421387 2.31982422 57.19116211 C4.03879334 59.93276485 4.03879334 59.93276485 7.41064453 60.47875977 C8.32958496 60.52701904 9.24852539 60.57527832 10.1953125 60.625 C13.4521282 56.83973518 15.78451674 52.87308827 17.98046875 48.41796875 C18.32283066 47.73374344 18.66519257 47.04951813 19.01792908 46.34455872 C19.73757555 44.90293609 20.45428922 43.45984609 21.16821289 42.01538086 C22.25109773 39.82607547 23.34448961 37.64226929 24.43945312 35.45898438 C25.14125816 34.04979432 25.84245004 32.64029869 26.54296875 31.23046875 C26.86491714 30.58748337 27.18686554 29.94449799 27.51856995 29.2820282 C31.63416598 21.40066589 31.63416598 21.40066589 33.1328125 12.875 C31.90055555 9.91758332 30.82226449 8.49151852 28.1953125 6.625 C24.6764435 6.02745621 22.34617173 5.97792156 19.1875 7.75390625 C17.47094127 8.9735664 15.82654828 10.29337896 14.1953125 11.625 C15.11351905 13.99703359 16.03543035 16.32049163 17.21875 18.57421875 C20.24818519 24.55789038 21.25755795 29.94347614 20.1953125 36.625 C18.17694401 40.15714485 16.11734717 42.42660052 12.1953125 43.625 C6.83478302 44.05043885 3.54109605 44.10162684 -0.8046875 40.625 C-4.25084198 36.75017752 -4.41096758 33.84731709 -4.30859375 28.796875 C-3.37595981 22.926342 -0.58252977 17.82518687 2.1953125 12.625 C-1.68901982 8.37822118 -3.9510378 6.63939196 -9.640625 6.296875 C-12.21579033 6.68733328 -13.15610128 7.30492245 -14.9296875 9.1875 Z M7.1953125 20.625 C3.54321758 26.74937854 3.54321758 26.74937854 3.1953125 33.625 C4.25876302 35.60529682 4.25876302 35.60529682 6.1953125 36.625 C9.53723942 36.38046876 10.80074807 36.01956443 13.1953125 33.625 C12.94331366 28.50102353 12.43852136 24.77630734 9.1953125 20.625 C8.5353125 20.625 7.8753125 20.625 7.1953125 20.625 Z " fill="#2893E0" transform="translate(46.8046875,45.375)"/>
<path d="M0 0 C3.25 2 3.25 2 5 4 C5.33 3.01 5.66 2.02 6 1 C8.97 1 11.94 1 15 1 C15.09886317 7.47781922 15.17146677 13.9551995 15.21972656 20.43359375 C15.23984419 22.6374476 15.26714172 24.84124807 15.30175781 27.04492188 C15.35026833 30.21237356 15.37296736 33.37911968 15.390625 36.546875 C15.41127014 37.53242371 15.43191528 38.51797241 15.45318604 39.53338623 C15.45539337 46.25971078 15.45539337 46.25971078 13.3828125 49.62890625 C10.24162682 51.43637539 8.1010166 51.45638212 4.484375 51.390625 C3.23398437 51.37773438 1.98359375 51.36484375 0.6953125 51.3515625 C-1.25761719 51.30128906 -1.25761719 51.30128906 -3.25 51.25 C-4.56742187 51.23195312 -5.88484375 51.21390625 -7.2421875 51.1953125 C-10.49552308 51.14816271 -13.74739625 51.08236044 -17 51 C-17 48.03 -17 45.06 -17 42 C-9.74 42 -2.48 42 5 42 C4.67 39.36 4.34 36.72 4 34 C3.38125 34.495 2.7625 34.99 2.125 35.5 C-2.76867397 37.8489635 -7.87976316 38.04598849 -13.0625 36.30859375 C-17.37441552 34.08758554 -19.7245904 31.20075619 -22 27 C-23.9572058 20.58036498 -23.63857572 13.97751884 -21.05859375 7.79296875 C-16.27950774 -0.30149796 -8.57255168 -0.87894338 0 0 Z M-10.5 10.5 C-12.56331765 13.93886275 -13.2149476 16.99560574 -13 21 C-11.42569236 24.62090756 -10.31117074 25.79255284 -7 28 C-2.97964268 28.44670637 -0.70378189 28.38249016 2.875 26.4375 C5.65315664 23.25079092 5.92645349 21.19215118 6 17 C5.04325479 13.49193421 3.81130312 11.29428186 1 9 C-3.1565864 8.15031107 -6.84992534 8.3099552 -10.5 10.5 Z " fill="#1B1837" transform="translate(294,71)"/>
<path d="M0 0 C5.94 0 11.88 0 18 0 C19.53298678 5.65513185 21.06392135 11.31074204 22.58984375 16.96777344 C23.10853138 18.88833697 23.62836674 20.80859094 24.14941406 22.72851562 C24.9021807 25.50308077 25.65068438 28.27876756 26.3984375 31.0546875 C26.6287265 31.8998996 26.8590155 32.74511169 27.09628296 33.61593628 C28.64148548 39.3739776 29.87999975 45.14399868 31 51 C27.37 51 23.74 51 20 51 C18.80712589 47.12315913 18 44.08378077 18 40 C9.585 40.495 9.585 40.495 1 41 C0.01 44.3 -0.98 47.6 -2 51 C-5.63 51 -9.26 51 -13 51 C-12.74831055 50.02353516 -12.49662109 49.04707031 -12.23730469 48.04101562 C-11.28246116 44.3359238 -10.32838436 40.63063486 -9.37451172 36.92529297 C-8.9655335 35.33702493 -8.55636119 33.74880686 -8.14697266 32.16064453 C-5.38654523 21.45127129 -2.67077625 10.73211005 0 0 Z M9 8 C6.42718118 15.22839572 4.63304408 22.50652821 3 30 C6.96 30 10.92 30 15 30 C14.38153536 27.08180761 13.75551865 24.16558978 13.125 21.25 C12.95097656 20.425 12.77695312 19.6 12.59765625 18.75 C12.42363281 17.95078125 12.24960937 17.1515625 12.0703125 16.328125 C11.91320801 15.5949707 11.75610352 14.86181641 11.59423828 14.10644531 C10.97058111 11.89571644 10.08856601 10.01763516 9 8 Z " fill="#1B1837" transform="translate(407,57)"/>
<path d="M0 0 C3.3 0 6.6 0 10 0 C10.01458252 0.74685059 10.02916504 1.49370117 10.04418945 2.26318359 C10.11847946 5.63432252 10.21520199 9.00445005 10.3125 12.375 C10.33505859 13.550625 10.35761719 14.72625 10.38085938 15.9375 C10.41630859 17.05898437 10.45175781 18.18046875 10.48828125 19.3359375 C10.51446533 20.37282715 10.54064941 21.4097168 10.56762695 22.47802734 C10.71031006 23.31027832 10.85299316 24.1425293 11 25 C13.88461063 27.3343558 13.88461063 27.3343558 17.5 26.9375 C21.0042906 26.3424068 21.0042906 26.3424068 22.67578125 24.1171875 C24.62275995 19.53403409 24.57153303 15.12106637 24.6875 10.1875 C24.72166016 9.20845703 24.75582031 8.22941406 24.79101562 7.22070312 C24.87318901 4.81419676 24.93827903 2.40711775 25 0 C28.3 0 31.6 0 35 0 C35.07423798 6.17469663 35.12864413 12.34913261 35.16479492 18.52416992 C35.17986772 20.62415086 35.20032941 22.7241004 35.22631836 24.82397461 C35.26276754 27.84496824 35.27974159 30.86554511 35.29296875 33.88671875 C35.30845261 34.82335861 35.32393646 35.75999847 35.33988953 36.72502136 C35.3411485 41.61737073 35.27295624 45.06757863 32 49 C29.28598706 50.35700647 27.15153684 50.1123861 24.1171875 50.09765625 C22.95058594 50.09443359 21.78398437 50.09121094 20.58203125 50.08789062 C19.35871094 50.07951172 18.13539063 50.07113281 16.875 50.0625 C15.64394531 50.05798828 14.41289062 50.05347656 13.14453125 50.04882812 C10.09630608 50.0370133 7.04817686 50.02054028 4 50 C4 47.03 4 44.06 4 41 C10.93 41 17.86 41 25 41 C24.67 38.36 24.34 35.72 24 33 C23.505 33.474375 23.01 33.94875 22.5 34.4375 C19.12245658 36.54846464 15.92309633 37.12465914 12 37 C7.34429943 35.52569482 4.09384252 33.80780618 1 30 C-0.09911549 26.70265354 -0.1139456 24.27041255 -0.09765625 20.80078125 C-0.09443359 19.59228516 -0.09121094 18.38378906 -0.08789062 17.13867188 C-0.07951172 15.87603516 -0.07113281 14.61339844 -0.0625 13.3125 C-0.05573242 11.40114258 -0.05573242 11.40114258 -0.04882812 9.45117188 C-0.03702873 6.30073436 -0.02056597 3.15039051 0 0 Z " fill="#1B1837" transform="translate(189,72)"/>
<path d="M0 0 C3.3 0 6.6 0 10 0 C12.55013692 7.17961626 14.44570179 14.44135496 16.21704102 21.84936523 C16.6911171 23.82759348 17.17430742 25.80345043 17.65820312 27.77929688 C17.96048828 29.03419922 18.26277344 30.28910156 18.57421875 31.58203125 C18.84838623 32.71874268 19.12255371 33.8554541 19.4050293 35.02661133 C20 38 20 38 20 42 C20.66 42 21.32 42 22 42 C22.19033813 40.27426758 22.19033813 40.27426758 22.38452148 38.51367188 C22.92683092 34.18944425 23.82430833 30.01385124 24.84765625 25.78125 C25.02380966 25.03790405 25.19996307 24.29455811 25.38145447 23.52868652 C25.93783886 21.18482642 26.50006016 18.84241354 27.0625 16.5 C27.44374836 14.89853005 27.8246113 13.2969683 28.20507812 11.6953125 C29.13227101 7.79580058 30.0646966 3.89757419 31 0 C34.63 0 38.26 0 42 0 C41.36226176 6.24412362 40.08445006 12.12090896 38.49609375 18.1875 C38.13198143 19.60216553 38.13198143 19.60216553 37.76051331 21.04541016 C36.99081439 24.03149451 36.21427241 27.01574878 35.4375 30 C34.91165477 32.03503884 34.38625954 34.07019401 33.86132812 36.10546875 C32.57941963 41.07167319 31.29137463 46.03624903 30 51 C24.06 51 18.12 51 12 51 C10.28488252 44.38128867 8.57605343 37.76099802 6.87304688 31.13916016 C6.29274545 28.8864352 5.71072419 26.63415255 5.12695312 24.38232422 C4.28844554 21.14665465 3.45612351 17.90944801 2.625 14.671875 C2.23127197 13.16074127 2.23127197 13.16074127 1.82958984 11.61907959 C1.58934082 10.67840637 1.3490918 9.73773315 1.1015625 8.76855469 C0.88838379 7.94248718 0.67520508 7.11641968 0.45556641 6.26531982 C0 4 0 4 0 0 Z " fill="#1A1836" transform="translate(100,57)"/>
<path d="M0 0 C3.3284925 2.54016533 5.08945425 4.85126258 5.70703125 9.09301758 C5.89342132 11.77212154 5.99609374 14.44028966 6.0625 17.125 C6.09666016 18.05634766 6.13082031 18.98769531 6.16601562 19.94726562 C6.24815941 22.23555672 6.31741662 24.52348104 6.375 26.8125 C7.695 27.1425 9.015 27.4725 10.375 27.8125 C10.375 30.4525 10.375 33.0925 10.375 35.8125 C8.79253293 35.89403933 7.20883727 35.95193557 5.625 36 C4.30242187 36.05220703 4.30242187 36.05220703 2.953125 36.10546875 C-0.07171583 35.76173684 -1.38083602 34.81022541 -3.625 32.8125 C-4.264375 33.4725 -4.90375 34.1325 -5.5625 34.8125 C-9.68089648 37.50206505 -12.83107974 37.52271041 -17.625 36.8125 C-21.15079048 35.44135926 -24.51510858 34.03286059 -26.625 30.8125 C-27.66631937 26.27532273 -27.99785519 23.9103514 -26.5 19.5 C-24.35254579 16.4219823 -23.02177428 15.38516535 -19.625 13.8125 C-16.76827264 13.60265225 -14.15298778 13.52600177 -11.3125 13.625 C-10.57193359 13.63853516 -9.83136719 13.65207031 -9.06835938 13.66601562 C-7.25358925 13.70114021 -5.43919712 13.75494028 -3.625 13.8125 C-4.285 12.1625 -4.945 10.5125 -5.625 8.8125 C-8.93067489 7.95862895 -8.93067489 7.95862895 -12.625 7.8125 C-13.285 8.4725 -13.945 9.1325 -14.625 9.8125 C-15.285 10.4725 -15.945 11.1325 -16.625 11.8125 C-19.99014555 11.63844075 -22.60142995 11.32428502 -25.625 9.8125 C-25.47317368 7.15553932 -25.15175976 5.37015476 -23.29296875 3.40234375 C-16.4067975 -2.34450963 -8.52270483 -2.79192055 0 0 Z M-17.625 23.8125 C-17.06137698 25.86086882 -17.06137698 25.86086882 -15.625 27.8125 C-12.57008902 28.74225551 -10.48289818 29.02697455 -7.375 28.25 C-4.85874783 26.18307858 -4.42980215 23.89757489 -3.625 20.8125 C-5.20746707 20.73096067 -6.79116273 20.67306443 -8.375 20.625 C-9.25671875 20.59019531 -10.1384375 20.55539063 -11.046875 20.51953125 C-14.07171583 20.86326316 -15.38083602 21.81477459 -17.625 23.8125 Z " fill="#1B1837" transform="translate(257.625,72.1875)"/>
<path d="M0 0 C4.98409688 3.73807266 8.12823912 7.76442879 9.5 13.875 C10.04302444 19.63105906 9.09102647 24.72195108 6.5 29.875 C2.99437099 34.03541603 -1.37818106 36.57666918 -6.7890625 37.09375 C-13.83134399 37.3490593 -18.85584985 36.1665968 -24.3125 31.4375 C-29.00228609 25.94375058 -28.93736966 21.40274155 -28.8046875 14.296875 C-28.31733462 8.82352726 -26.93284931 6.20623152 -22.91015625 2.3515625 C-16.26156055 -2.73679193 -7.71451395 -2.4796652 0 0 Z M-16.4375 9.75 C-19.30602974 14.09625718 -19.45153055 17.80017042 -18.5 22.875 C-16.61484777 25.45137471 -15.30665143 26.47167428 -12.5 27.875 C-8.54569274 28.40224097 -6.98094709 28.21700682 -3.6875 25.875 C-0.76851585 21.87182173 -0.5 19.82458438 -0.5 14.875 C-2.07430764 11.25409244 -3.18882926 10.08244716 -6.5 7.875 C-10.74648478 7.32452975 -12.79726686 7.42644693 -16.4375 9.75 Z " fill="#1B1837" transform="translate(364.5,72.125)"/>
<path d="M0 0 C4.43691681 2.39728839 7.6469843 5.50236502 9.484375 10.21484375 C11.38070457 16.90566696 10.98280195 23.977373 7.72265625 30.20703125 C4.8807887 33.9993247 1.29351074 36.24536242 -3.26953125 37.28125 C-10.40131646 38.14473969 -16.37033783 37.59433953 -22.26953125 33.28125 C-26.91998708 28.39230926 -27.45758441 24.59063174 -27.58203125 17.96875 C-27.61941406 16.67324219 -27.65679687 15.37773438 -27.6953125 14.04296875 C-27.07612181 8.5725042 -24.72156646 5.59162324 -20.70703125 1.96875 C-15.02960732 -1.96177426 -6.49283779 -2.05625155 0 0 Z M-15.14453125 10.40625 C-17.54781887 13.65775678 -18.26953125 15.25018988 -18.26953125 19.28125 C-16.77284107 24.09245654 -16.77284107 24.09245654 -13.45703125 27.71875 C-10.47186331 28.48636461 -8.3456806 28.72069991 -5.26953125 28.28125 C-1.77593353 25.71927834 -0.48263785 24.01380393 0.73046875 19.84375 C0.73046875 15.75030764 -0.04949103 13.69059749 -2.26953125 10.28125 C-6.92804934 7.17557127 -10.59036622 7.04012802 -15.14453125 10.40625 Z " fill="#1B1837" transform="translate(171.26953125,71.71875)"/>
<path d="M0 0 C3.3 0 6.6 0 10 0 C10 16.83 10 33.66 10 51 C6.7 51 3.4 51 0 51 C0 34.17 0 17.34 0 0 Z " fill="#1C1939" transform="translate(443,57)"/>
<path d="M0 0 C3.3 0 6.6 0 10 0 C10 11.88 10 23.76 10 36 C6.7 36 3.4 36 0 36 C0 24.12 0 12.24 0 0 Z " fill="#1B1837" transform="translate(318,72)"/>
<path d="M0 0 C1.65 0 3.3 0 5 0 C5.99 1.98 6.98 3.96 8 6 C8.66 4.02 9.32 2.04 10 0 C11.65 0 13.3 0 15 0 C15.66 1.98 16.32 3.96 17 6 C19.10232344 3.1315587 19.10232344 3.1315587 20 0 C21.32 0 22.64 0 24 0 C23.43179252 5.45479185 22.05362055 9.91059256 20 15 C18.35 15 16.7 15 15 15 C14.34 13.35 13.68 11.7 13 10 C11.06201737 12.77260299 11.06201737 12.77260299 10 15 C8.35 15 6.7 15 5 15 C3.08460953 10.03739743 1.39038565 5.13373162 0 0 Z " fill="#191734" transform="translate(57,130)"/>
<path d="M0 0 C2.45898655 -0.08076963 4.91533742 -0.14037143 7.375 -0.1875 C8.07367188 -0.21263672 8.77234375 -0.23777344 9.4921875 -0.26367188 C11.5234375 -0.29296875 11.5234375 -0.29296875 15 0 C15.66 0.99 16.32 1.98 17 3 C17.33 2.01 17.66 1.02 18 0 C19.65 0 21.3 0 23 0 C23 4.29 23 8.58 23 13 C22.01 13 21.02 13 20 13 C19.67 12.34 19.34 11.68 19 11 C18.67 11.66 18.34 12.32 18 13 C15.36 13 12.72 13 10 13 C10 9.7 10 6.4 10 3 C9.01 3 8.02 3 7 3 C7 5.97 7 8.94 7 12 C5.68 12.33 4.36 12.66 3 13 C3 9.7 3 6.4 3 3 C2.01 3 1.02 3 0 3 C0 2.01 0 1.02 0 0 Z " fill="#191633" transform="translate(458,57)"/>
<path d="M0 0 C1.32 0 2.64 0 4 0 C4.33 1.98 4.66 3.96 5 6 C5.66 5.34 6.32 4.68 7 4 C9.625 3.875 9.625 3.875 12 4 C11 6 10 8 9 10 C10.98 12.97 10.98 12.97 13 16 C10.125 16.125 10.125 16.125 7 16 C6.34 15.34 5.68 14.68 5 14 C4.67 14.66 4.34 15.32 4 16 C2.35 16 0.7 16 -1 16 C-1.02685095 13.52076199 -1.04676547 11.0418116 -1.0625 8.5625 C-1.07506836 7.50192383 -1.07506836 7.50192383 -1.08789062 6.41992188 C-1.09653588 4.61306441 -1.05220011 2.80612397 -1 1 C-0.67 0.67 -0.34 0.34 0 0 Z " fill="#17152F" transform="translate(315,129)"/>
<path d="M0 0 C1.65 0 3.3 0 5 0 C5 1.32 5 2.64 5 4 C5.763125 3.938125 6.52625 3.87625 7.3125 3.8125 C10 4 10 4 11.65625 5.21875 C13.39217091 7.51985446 13.31131194 8.83982544 13.1875 11.6875 C13.16042969 12.49574219 13.13335937 13.30398437 13.10546875 14.13671875 C13.07066406 14.75160156 13.03585938 15.36648437 13 16 C11.68 16 10.36 16 9 16 C8.67 13.36 8.34 10.72 8 8 C7.01 8.495 7.01 8.495 6 9 C5.59270772 11.32156597 5.25561323 13.6568787 5 16 C3.35 16 1.7 16 0 16 C0 10.72 0 5.44 0 0 Z " fill="#17152F" transform="translate(86,129)"/>
<path d="M0 0 C1.32 0 2.64 0 4 0 C4.33 1.32 4.66 2.64 5 4 C5.763125 3.896875 6.52625 3.79375 7.3125 3.6875 C10 4 10 4 11.8125 6.0625 C13.22301242 9.5516623 13.21943084 12.2696758 13 16 C11.35 16 9.7 16 8 16 C8 13.36 8 10.72 8 8 C7.01 8 6.02 8 5 8 C4.67 10.64 4.34 13.28 4 16 C2.68 16 1.36 16 0 16 C0 10.72 0 5.44 0 0 Z " fill="#181531" transform="translate(268,129)"/>
<path d="M0 0 C3.4375 0.8125 3.4375 0.8125 5.4375 3.8125 C5.29320362 7.27561301 5.03512717 9.15084135 2.6875 11.75 C0.4375 12.8125 0.4375 12.8125 -2.125 12.6875 C-6.09191176 11.26348039 -6.09191176 11.26348039 -7.5625 8.8125 C-7.4375 5.25 -7.4375 5.25 -6.5625 1.8125 C-3.5625 -0.1875 -3.5625 -0.1875 0 0 Z " fill="#191633" transform="translate(324.5625,56.1875)"/>
<path d="M0 0 C1.65 0 3.3 0 5 0 C5.66 1.65 6.32 3.3 7 5 C7.4125 4.175 7.825 3.35 8.25 2.5 C8.8275 1.675 9.405 0.85 10 0 C11.32 0 12.64 0 14 0 C9.89320388 13.10679612 9.89320388 13.10679612 6 17 C2.875 16.625 2.875 16.625 0 16 C0.66 14.68 1.32 13.36 2 12 C2.99 12.33 3.98 12.66 5 13 C4.6390625 12.22914063 4.278125 11.45828125 3.90625 10.6640625 C3.4421875 9.66117188 2.978125 8.65828125 2.5 7.625 C1.80390625 6.12839844 1.80390625 6.12839844 1.09375 4.6015625 C0 2 0 2 0 0 Z " fill="#17142F" transform="translate(406,133)"/>
<path d="M0 0 C3.4375 0.75 3.4375 0.75 5.4375 2.75 C5.80666952 6.25711043 5.65210952 8.93140607 3.4375 11.75 C0.625 12.8125 0.625 12.8125 -2.5625 12.75 C-5.5 10.6875 -5.5 10.6875 -7.5625 7.75 C-7.5625 4.5625 -7.5625 4.5625 -6.5625 1.75 C-3.5625 -0.25 -3.5625 -0.25 0 0 Z " fill="#17152F" transform="translate(140.5625,133.25)"/>
<path d="M0 0 C2.11740745 1.51243389 2.86091032 2.6469262 3.8125 5.0625 C3.874375 5.701875 3.93625 6.34125 4 7 C3.34 7.66 2.68 8.32 2 9 C2 9.99 2 10.98 2 12 C-1.45208918 12.88309258 -3.47296338 13.18331708 -6.875 12 C-9 10 -9 10 -9.5625 6.5 C-9 3 -9 3 -7.3125 1.0625 C-4.58181113 -0.19214083 -2.97067849 -0.45702746 0 0 Z M-4 8 C0 9 0 9 0 9 Z " fill="#181531" transform="translate(227,133)"/>
<path d="M0 0 C2.11740745 1.51243389 2.86091032 2.6469262 3.8125 5.0625 C3.874375 5.701875 3.93625 6.34125 4 7 C3.34 7.66 2.68 8.32 2 9 C2 9.99 2 10.98 2 12 C-1.45208918 12.88309258 -3.47296338 13.18331708 -6.875 12 C-9 10 -9 10 -9.5625 6.5 C-9 3 -9 3 -7.3125 1.0625 C-4.58181113 -0.19214083 -2.97067849 -0.45702746 0 0 Z M-4 8 C0 9 0 9 0 9 Z " fill="#181531" transform="translate(113,133)"/>
<path d="M0 0 C1.588125 -0.061875 3.17625 -0.12375 4.8125 -0.1875 C6.15248047 -0.23970703 6.15248047 -0.23970703 7.51953125 -0.29296875 C10 0 10 0 11.8125 1.21875 C13.34760072 3.52140108 13.30675377 4.94466334 13.1875 7.6875 C13.16042969 8.49574219 13.13335937 9.30398437 13.10546875 10.13671875 C13.07066406 10.75160156 13.03585937 11.36648437 13 12 C11.68 12 10.36 12 9 12 C8.67 9.36 8.34 6.72 8 4 C7.01 4.495 7.01 4.495 6 5 C5.59270772 7.32156597 5.25561323 9.6568787 5 12 C3.35 12 1.7 12 0 12 C0 8.04 0 4.08 0 0 Z " fill="#171530" transform="translate(296,133)"/>
<path d="M0 0 C3.4375 0.75 3.4375 0.75 5.4375 2.75 C6.1075702 8.89231015 6.1075702 8.89231015 3.875 11.75 C0.38607191 13.18135511 -1.96005972 12.683966 -5.5625 11.75 C-7.5625 8.75 -7.5625 8.75 -7.375 5.1875 C-6.23622678 0.36961331 -4.88730584 -0.34296883 0 0 Z M-2.5625 3.75 C-2.8925 4.74 -3.2225 5.73 -3.5625 6.75 C-3.2325 7.41 -2.9025 8.07 -2.5625 8.75 C-1.2425 8.42 0.0775 8.09 1.4375 7.75 C1.1075 6.43 0.7775 5.11 0.4375 3.75 C-0.5525 3.75 -1.5425 3.75 -2.5625 3.75 Z " fill="#181531" transform="translate(374.5625,133.25)"/>
<path d="M0 0 C1.20272819 2.40545638 1.10071472 3.94996953 1.0625 6.625 C1.05347656 7.44226563 1.04445312 8.25953125 1.03515625 9.1015625 C1.02355469 9.72804687 1.01195312 10.35453125 1 11 C-0.45635371 11.22174933 -1.91522956 11.42698698 -3.375 11.625 C-4.18710938 11.74101562 -4.99921875 11.85703125 -5.8359375 11.9765625 C-6.55007812 11.98429688 -7.26421875 11.99203125 -8 12 C-10 10 -10 10 -10.1953125 7.6171875 C-10.17210937 6.71226562 -10.14890625 5.80734375 -10.125 4.875 C-10.10695312 3.96492187 -10.08890625 3.05484375 -10.0703125 2.1171875 C-10.04710937 1.41851562 -10.02390625 0.71984375 -10 0 C-6.26840331 -1.24386556 -3.81984796 -0.77811718 0 0 Z M-8 3 C-4 4 -4 4 -4 4 Z " fill="#181632" transform="translate(196,134)"/>
<path d="M0 0 C2 2 2 2 2.4375 5.4375 C2 9 2 9 -0.125 11 C-3.59986896 12.20865007 -5.50263771 12.08806827 -9 11 C-11.31361802 7.52957297 -11.51020728 6.08165827 -11 2 C-7.81693261 -1.94700356 -4.59995823 -1.10739735 0 0 Z M-6 3 C-6.33 4.32 -6.66 5.64 -7 7 C-5.68 7.33 -4.36 7.66 -3 8 C-2.67 6.68 -2.34 5.36 -2 4 C-3.32 3.67 -4.64 3.34 -6 3 Z " fill="#181632" transform="translate(434,134)"/>
<path d="M0 0 C1.32 0 2.64 0 4 0 C4.33 2.64 4.66 5.28 5 8 C5.66 8 6.32 8 7 8 C7.33 5.36 7.66 2.72 8 0 C9.32 0 10.64 0 12 0 C12 3.96 12 7.92 12 12 C4.66932271 13.3439575 4.66932271 13.3439575 1.75 11.84375 C0 10 0 10 -0.390625 7.51953125 C-0.34421875 6.62621094 -0.2978125 5.73289063 -0.25 4.8125 C-0.21390625 3.91144531 -0.1778125 3.01039063 -0.140625 2.08203125 C-0.07101562 1.05142578 -0.07101562 1.05142578 0 0 Z " fill="#181632" transform="translate(441,133)"/>
<path d="M0 0 C-0.20625 0.61875 -0.4125 1.2375 -0.625 1.875 C-0.74875 2.57625 -0.8725 3.2775 -1 4 C-0.34 4.66 0.32 5.32 1 6 C0.8125 8 0.8125 8 0 10 C-3.8503105 12.56687367 -5.58569763 11.83288724 -10 11 C-9.7215625 10.0409375 -9.7215625 10.0409375 -9.4375 9.0625 C-9.293125 8.381875 -9.14875 7.70125 -9 7 C-9.33 6.67 -9.66 6.34 -10 6 C-10.25 3.5625 -10.25 3.5625 -10 1 C-6.1496895 -1.56687367 -4.41430237 -0.83288724 0 0 Z M-8 7 C-4 8 -4 8 -4 8 Z " fill="#171530" transform="translate(341,134)"/>
<path d="M0 0 C2.375 0.25 2.375 0.25 5 1 C6.3125 3.0625 6.3125 3.0625 7 5 C7.4125 4.175 7.825 3.35 8.25 2.5 C8.8275 1.675 9.405 0.85 10 0 C11.32 0 12.64 0 14 0 C13.54738642 1.43931117 13.08767021 2.87638999 12.625 4.3125 C12.36976563 5.11300781 12.11453125 5.91351563 11.8515625 6.73828125 C11 9 11 9 9 12 C6.375 12.1875 6.375 12.1875 4 12 C3.32645501 10.56570999 2.66140299 9.12742943 2 7.6875 C1.62875 6.88699219 1.2575 6.08648437 0.875 5.26171875 C0 3 0 3 0 0 Z " fill="#171530" transform="translate(201,133)"/>
<path d="M0 0 C3.63 0 7.26 0 11 0 C11 3.96 11 7.92 11 12 C11.66 12 12.32 12 13 12 C13 10.35 13 8.7 13 7 C14.0625 8.875 14.0625 8.875 15 11 C14.67 11.66 14.34 12.32 14 13 C12.68 13 11.36 13 10 13 C10 9.7 10 6.4 10 3 C9.01 3 8.02 3 7 3 C7 5.97 7 8.94 7 12 C5.68 12.33 4.36 12.66 3 13 C3 9.7 3 6.4 3 3 C2.01 3 1.02 3 0 3 C0 2.01 0 1.02 0 0 Z " fill="#131228" transform="translate(458,57)"/>
<path d="M0 0 C1.2065625 0.0309375 1.2065625 0.0309375 2.4375 0.0625 C2.4375 2.7025 2.4375 5.3425 2.4375 8.0625 C1.4475 8.0625 0.4575 8.0625 -0.5625 8.0625 C-0.5625 10.7025 -0.5625 13.3425 -0.5625 16.0625 C-1.8825 16.0625 -3.2025 16.0625 -4.5625 16.0625 C-4.5625 13.4225 -4.5625 10.7825 -4.5625 8.0625 C-5.2225 8.0625 -5.8825 8.0625 -6.5625 8.0625 C-6.5625 7.0725 -6.5625 6.0825 -6.5625 5.0625 C-5.9025 5.0625 -5.2425 5.0625 -4.5625 5.0625 C-4.3459375 4.1034375 -4.3459375 4.1034375 -4.125 3.125 C-3.30589691 0.12162199 -3.19313651 0.07788138 0 0 Z " fill="#191734" transform="translate(361.5625,128.9375)"/>
<path d="M0 0 C1.32 0 2.64 0 4 0 C4 0.99 4 1.98 4 3 C4.99 3 5.98 3 7 3 C7 3.99 7 4.98 7 6 C6.01 6 5.02 6 4 6 C4.27617533 7.94074861 4.27617533 7.94074861 5 10 C5.99 10.66 6.98 11.32 8 12 C7.67 12.99 7.34 13.98 7 15 C4.0625 14.625 4.0625 14.625 1 14 C-0.35439668 11.29120665 -0.06501451 8.99066732 0 6 C-0.66 6 -1.32 6 -2 6 C-2 5.01 -2 4.02 -2 3 C-1.34 3 -0.68 3 0 3 C0 2.01 0 1.02 0 0 Z " fill="#181632" transform="translate(161,131)"/>
<path d="M0 0 C1.32 0 2.64 0 4 0 C4 0.99 4 1.98 4 3 C4.99 3 5.98 3 7 3 C7 3.99 7 4.98 7 6 C6.01 6 5.02 6 4 6 C4 7.65 4 9.3 4 11 C4.99 11 5.98 11 7 11 C6.67 12.32 6.34 13.64 6 15 C1.125 14.125 1.125 14.125 0 13 C-0.04092937 10.66702567 -0.04241723 8.33294775 0 6 C-0.66 6 -1.32 6 -2 6 C-2 5.01 -2 4.02 -2 3 C-1.34 3 -0.68 3 0 3 C0 2.01 0 1.02 0 0 Z " fill="#191734" transform="translate(256,131)"/>
<path d="M0 0 C1.32 0 2.64 0 4 0 C4 5.28 4 10.56 4 16 C2.35 16 0.7 16 -1 16 C-1.02685095 13.52076199 -1.04676547 11.0418116 -1.0625 8.5625 C-1.07506836 7.50192383 -1.07506836 7.50192383 -1.08789062 6.41992188 C-1.09653588 4.61306441 -1.05220011 2.80612397 -1 1 C-0.67 0.67 -0.34 0.34 0 0 Z " fill="#16142D" transform="translate(236,129)"/>
<path d="M0 0 C2.64 0 5.28 0 8 0 C8 1.32 8 2.64 8 4 C7.01 4.495 7.01 4.495 6 5 C5.59270772 7.32156597 5.25561323 9.6568787 5 12 C3.35 12 1.7 12 0 12 C0 8.04 0 4.08 0 0 Z " fill="#17152F" transform="translate(385,133)"/>
<path d="M0 0 C1.134375 0.020625 2.26875 0.04125 3.4375 0.0625 C3.4375 1.3825 3.4375 2.7025 3.4375 4.0625 C2.4475 4.5575 2.4475 4.5575 1.4375 5.0625 C1.03020772 7.38406597 0.69311323 9.7193787 0.4375 12.0625 C-1.2125 12.0625 -2.8625 12.0625 -4.5625 12.0625 C-4.58937279 10.25007948 -4.60883715 8.43754767 -4.625 6.625 C-4.63660156 5.61566406 -4.64820312 4.60632813 -4.66015625 3.56640625 C-4.50618986 -0.38129207 -4.09874205 0.07190776 0 0 Z " fill="#171530" transform="translate(125.5625,132.9375)"/>
<path d="M0 0 C1.98 0.495 1.98 0.495 4 1 C3.67 6.28 3.34 11.56 3 17 C1.68 17 0.36 17 -1 17 C-1.02684679 14.35409986 -1.04676357 11.70846904 -1.0625 9.0625 C-1.07087891 8.30775391 -1.07925781 7.55300781 -1.08789062 6.77539062 C-1.09652441 4.85005687 -1.05224333 2.92464419 -1 1 C-0.67 0.67 -0.34 0.34 0 0 Z " fill="#0D0C1B" transform="translate(287,128)"/>
<path d="M0 0 C2.64 0 5.28 0 8 0 C8 1.32 8 2.64 8 4 C7.01 4.33 6.02 4.66 5 5 C4.67 7.31 4.34 9.62 4 12 C2.68 12 1.36 12 0 12 C0 8.04 0 4.08 0 0 Z " fill="#181632" transform="translate(174,133)"/>
<path d="M0 0 C0.99 0 1.98 0 3 0 C3 3.63 3 7.26 3 11 C2.01 11 1.02 11 0 11 C0 7.37 0 3.74 0 0 Z " fill="#1D1A3B" transform="translate(287,134)"/>
<path d="M0 0 C1.98 0.495 1.98 0.495 4 1 C4 1.99 4 2.98 4 4 C2.35 4 0.7 4 -1 4 C-0.67 2.68 -0.34 1.36 0 0 Z " fill="#16142D" transform="translate(287,128)"/>
</svg>
